<?xml version="1.0" encoding="UTF-8" standalone="no"?>
<!-- Created with Inkscape (http://www.inkscape.org/) -->

<svg
   width="1743.881mm"
   height="259.29199mm"
   viewBox="0 0 1743.881 259.29199"
   version="1.1"
   id="svg1"
   xml:space="preserve"
   inkscape:version="1.4.3 (0d15f75, 2025-12-25)"
   sodipodi:docname="foodmart_logo.svg"
   xmlns:inkscape="http://www.inkscape.org/namespaces/inkscape"
   xmlns:sodipodi="http://sodipodi.sourceforge.net/DTD/sodipodi-0.dtd"
   xmlns="http://www.w3.org/2000/svg"
   xmlns:svg="http://www.w3.org/2000/svg"><sodipodi:namedview
     id="namedview1"
     pagecolor="#ffffff"
     bordercolor="#000000"
     borderopacity="0.25"
     inkscape:showpageshadow="2"
     inkscape:pageopacity="0.0"
     inkscape:pagecheckerboard="0"
     inkscape:deskcolor="#d1d1d1"
     inkscape:document-units="mm"
     inkscape:zoom="0.1933151"
     inkscape:cx="2480.4064"
     inkscape:cy="1008.7158"
     inkscape:window-width="1920"
     inkscape:window-height="1112"
     inkscape:window-x="-8"
     inkscape:window-y="-8"
     inkscape:window-maximized="1"
     inkscape:current-layer="layer1" /><defs
     id="defs1" /><g
     inkscape:label="Layer 1"
     inkscape:groupmode="layer"
     id="layer1"><path
       style="font-stretch:condensed;font-size:30.3075px;font-family:Impact;-inkscape-font-specification:'Impact, Condensed';fill:#26b140;stroke-width:99.1428"
       d="M 115.7574,5.2257827 H 225.34554 L 202.17979,55.024589 h -44.88035 l -21.95037,47.185971 h 39.96201 l -22.02173,47.33957 H 113.32736 L 64.70779,254.0662 H 0 Z M 321.10112,150.93347 q -17.4458,37.50276 -26.58321,53.18022 -8.91213,15.52372 -24.29378,28.43452 -15.22796,12.9108 -34.27653,19.82734 -19.04859,6.91644 -40.10544,6.91644 -19.98104,0 -32.96287,-6.45541 -12.75667,-6.6091 -16.36232,-19.67362 -3.60565,-13.0645 1.69991,-28.43452 5.30543,-15.36991 23.18028,-53.79497 l 19.80532,-42.57495 Q 208.64827,70.855757 217.56051,55.332018 226.69781,39.654567 241.92574,26.743773 257.3074,13.832979 276.35598,6.9165413 295.40458,0 316.46152,0 q 19.98096,0 32.73762,6.6091118 12.98183,6.4553962 16.58749,19.5199062 3.60563,13.064508 -1.70002,28.43453 -5.30544,15.370023 -23.18017,53.794972 z M 294.43098,69.164998 q 8.07937,-17.368106 8.2978,-22.132745 0.44348,-4.918459 -5.55078,-4.918459 -5.07206,0 -9.69773,3.99617 -4.4003,3.842557 -13.33767,23.055034 L 220.08912,185.36225 q -10.08141,21.67171 -10.75028,26.74388 -0.51514,5.07206 5.94046,5.07206 6.6091,0 11.17039,-5.84063 4.56137,-5.84054 14.7858,-27.81969 z m 198.66043,81.768472 q -17.44579,37.50276 -26.58309,53.18022 -8.91223,15.52372 -24.29389,28.43452 -15.22784,12.9108 -34.27653,19.82734 -19.04848,6.91644 -40.10542,6.91644 -19.98095,0 -32.96289,-6.45541 -12.75656,-6.6091 -16.3622,-19.67362 -3.60565,-13.0645 1.69978,-28.43452 5.30556,-15.36991 23.1804,-53.79497 l 19.80532,-42.57495 Q 380.63868,70.855757 389.55092,55.332018 398.68823,39.654567 413.91606,26.743773 429.29783,13.832979 448.3463,6.9165413 467.39499,0 488.45183,0 q 19.98105,0 32.73761,6.6091118 12.98183,6.4553962 16.58758,19.5199062 3.60566,13.064508 -1.69999,28.43453 -5.30554,15.370023 -23.18029,53.794972 z M 466.42139,69.164998 q 8.07938,-17.368106 8.29779,-22.132745 0.44349,-4.918459 -5.55076,-4.918459 -5.07207,0 -9.69773,3.99617 -4.40031,3.842557 -13.33768,23.055034 L 392.07953,185.36225 q -10.08141,21.67171 -10.75027,26.74388 -0.51516,5.07206 5.94034,5.07206 6.60912,0 11.1705,-5.84063 4.56138,-5.84054 14.78581,-27.81969 z M 585.00371,5.2257827 h 48.41548 q 46.87852,0 61.32242,4.3035981 14.5977,4.3035982 18.6289,14.1404082 4.0312,9.836811 0.5349,21.979134 -3.4252,11.98861 -19.8699,47.339579 l -40.5401,87.147958 q -15.58692,33.50661 -24.10552,44.88045 -8.29342,11.22004 -19.13511,17.67544 -10.7703,6.30178 -23.51315,8.91463 -12.6716,2.45922 -35.88025,2.45922 H 469.24662 Z M 629.90608,47.800722 553.75932,211.49127 q 13.98669,0 19.78839,-5.53321 5.87314,-5.68683 17.45607,-30.58633 l 44.973,-96.677352 q 7.86493,-16.906962 9.00553,-21.671705 1.1406,-4.764639 -1.701,-6.916437 -2.77,-2.305514 -13.37523,-2.305514 z M 958.64861,5.2257827 842.89121,254.0662 h -56.5617 L 864.47821,86.072064 763.73561,254.0662 h -40.1157 L 776.15771,89.914519 699.79651,254.0662 h -56.5617 L 758.99221,5.2257827 h 83.7665 q -6.7501,22.4401753 -16.7571,52.8727903 l -20.5431,63.324467 68.8087,-116.1972573 z m 137.71519,0 -78.7156,248.8404173 h -66.24469 l 17.5786,-44.72673 h -23.2087 l -24.6488,44.72673 h -67.0134 L 1002.7605,5.2257827 Z M 987.65797,165.22759 Q 1002.4019,122.96008 1026.3691,60.865231 983.35657,132.18203 965.52521,165.22759 Z M 1144.4719,5.2257827 h 45.8026 q 45.8026,0 60.2966,3.5351282 14.6477,3.5351271 17.9997,18.1365771 3.5768,14.447838 -11.2236,46.263783 -13.5133,29.049289 -25.3848,39.039809 -11.8713,9.99042 -34.0114,11.98861 16.9961,4.76464 19.8872,12.75707 2.8912,7.99234 1.2823,14.75517 -1.3839,6.60911 -15.3977,36.7343 l -30.5302,65.62997 h -60.0967 l 38.4666,-82.69065 q 9.2949,-19.98094 8.2836,-24.74568 -0.858,-4.76475 -14.2293,-4.76475 l -52.1946,112.20108 h -64.7077 z m 44.9024,42.5749393 -25.7397,55.332018 q 10.9127,0 16.5747,-2.92027 5.8874,-3.074085 13.5378,-19.519904 l 6.3634,-13.679368 q 5.5055,-11.834893 2.9178,-15.523633 -2.434,-3.688843 -13.654,-3.688843 z M 1444.3408,5.2257827 1421.175,55.024589 h -38.4249 L 1290.1583,254.0662 h -64.7076 l 92.5917,-199.041611 h -38.2714 l 23.1657,-49.7988063 z m -64.0355,198.1194273 -23.5947,50.72099 h -46.8785 l 23.5947,-50.72099 z m 189.4711,-76.23526 h -58.5598 l 10.9394,-23.51606 q 5.7199,-12.296043 5.7238,-16.599641 0.072,-4.457314 -5.3042,-4.457314 -5.3795,0 -9.0113,3.842455 -3.6319,3.842557 -9.8524,17.2145 l -44.7585,96.21619 q -5.0764,10.91271 -4.8839,16.44593 0.2638,5.37949 5.6437,5.37949 6.3018,0 11.0989,-5.68692 4.9511,-5.68693 12.3154,-21.51799 l 11.2971,-24.28466 h 55.332 q -11.5222,24.43837 -18.9328,36.73431 -7.1854,12.14233 -21.9524,25.05312 -14.5416,12.75717 -31.6029,19.36628 -16.9895,6.45541 -37.5853,6.45541 -26.2828,0 -37.5058,-8.91462 -11.1517,-9.06835 -10.0996,-25.20684 1.2773,-16.29221 15.1481,-46.11006 l 26.9553,-57.94487 q 12.0833,-25.9753 23.4582,-39.193523 11.3746,-13.218224 33.2258,-23.516074 21.9227,-10.451671 46.361,-10.451671 24.2846,0 36.7085,10.297956 12.4239,10.29785 10.8179,25.975303 -1.6058,15.677345 -14.9762,44.419299 z m 161.4283,-5.37949 -23.2374,49.95252 q -12.7982,27.51224 -21.5709,40.42315 -8.701,12.75707 -22.9888,23.97721 -14.2162,11.06632 -31.0128,16.44582 -16.5713,5.22589 -35.0154,5.22589 -20.5957,0 -32.8164,-4.45731 -12.1492,-4.61103 -15.9231,-13.67937 -3.5488,-9.22196 -0.9243,-22.13274 2.696,-13.06452 14.7793,-39.03982 l 24.3097,-52.25804 q 13.2275,-28.434526 26.8114,-44.419303 13.584,-15.984882 34.0733,-25.667978 20.4892,-9.683097 45.3885,-9.683097 20.9033,0 32.8807,6.301684 12.2025,6.14807 15.7013,16.138596 3.4986,9.990421 1.4854,20.595806 -1.8593,10.605282 -11.9407,32.276982 z m -54.9449,-15.37002 q 7.2929,-15.677452 7.4611,-19.673621 0.2399,-4.149884 -5.2934,-4.149884 -5.5331,0 -9.308,4.149884 -3.7034,3.996169 -10.9963,19.673621 l -42.8281,92.06632 q -6.7209,14.44783 -6.95,18.90514 -0.1579,4.3036 5.2219,4.3036 5.5332,0 9.0828,-3.99616 3.7034,-3.99627 9.8524,-17.2145 z"
       id="text1"
       aria-label="FOODMART.co" /></g></svg>
