<?xml version="1.0" encoding="UTF-8" standalone="no"?>
<!-- Created with Inkscape (http://www.inkscape.org/) -->

<svg
   width="241.38699mm"
   height="259.29199mm"
   viewBox="0 0 241.387 259.29199"
   version="1.1"
   id="svg1"
   xml:space="preserve"
   inkscape:version="1.4.3 (0d15f75, 2025-12-25)"
   sodipodi:docname="products_icon.svg"
   xmlns:inkscape="http://www.inkscape.org/namespaces/inkscape"
   xmlns:sodipodi="http://sodipodi.sourceforge.net/DTD/sodipodi-0.dtd"
   xmlns="http://www.w3.org/2000/svg"
   xmlns:svg="http://www.w3.org/2000/svg"><sodipodi:namedview
     id="namedview1"
     pagecolor="#ffffff"
     bordercolor="#000000"
     borderopacity="0.25"
     inkscape:showpageshadow="2"
     inkscape:pageopacity="0.0"
     inkscape:pagecheckerboard="0"
     inkscape:deskcolor="#d1d1d1"
     inkscape:document-units="mm"
     inkscape:zoom="0.38663019"
     inkscape:cx="839.30331"
     inkscape:cy="1042.3397"
     inkscape:window-width="1920"
     inkscape:window-height="1112"
     inkscape:window-x="-8"
     inkscape:window-y="-8"
     inkscape:window-maximized="1"
     inkscape:current-layer="layer1" /><defs
     id="defs1" /><g
     inkscape:label="Layer 1"
     inkscape:groupmode="layer"
     id="layer1"><path
       style="fill:#000000;stroke-width:4.09537"
       d="m 30.834631,258.62887 c -4.48067,-1.51959 -4.449308,-0.94251 -4.449308,-81.85444 0,-67.47165 -0.226179,-78.376095 -1.679994,-81.044221 C 20.542363,88.090879 8.2148131,57.488127 4.7726354,46.247935 -3.3087054,19.858991 -1.2114563,6.1997375 11.708069,1.0771745 26.525277,-4.7978573 44.742075,13.24488 69.200509,58.020132 l 9.660479,17.685149 2.998979,-1.681094 c 2.186674,-1.225759 3.354653,-3.10185 4.311968,-6.926241 0.722128,-2.884841 3.538987,-8.661685 6.259616,-12.837426 7.005985,-10.752909 9.319159,-20.046673 5.699063,-22.897678 -2.000095,-1.575247 -2.19823,-6.463903 -0.333803,-8.233276 0.928516,-0.881118 6.829369,-1.266665 19.386329,-1.266665 14.92735,0 18.35406,0.28685 19.79946,1.658706 2.32264,2.204061 2.2074,4.904389 -0.32749,7.678147 -1.70547,1.866075 -1.91248,3.071214 -1.16074,6.758694 0.50313,2.468202 0.93662,4.977672 0.96328,5.576572 0.0253,0.598901 2.36487,4.782622 5.19607,9.297193 3.94843,6.295995 5.56806,8.043221 6.95208,7.499621 0.99242,-0.389778 2.61983,-0.932669 3.61644,-1.206424 1.43082,-0.392965 1.91287,-2.320205 2.29114,-9.159559 0.8338,-15.07488 7.54689,-22.825226 19.77043,-22.825226 6.00998,0 6.38515,-0.15958 8.0586,-3.430516 8.02647,-15.6880951 22.87415,-22.3116588 34.14653,-15.2327737 6.41896,4.0310367 9.45859,10.7605687 9.93925,22.0049517 0.36112,8.446362 0.582,9.192631 2.88391,9.740865 1.37112,0.326738 3.83564,1.595988 5.4767,2.820997 7.80954,5.829386 8.74273,16.177533 2.50013,27.72363 l -3.95483,7.314787 2.47373,3.292748 c 1.84152,2.451224 2.47078,4.776449 2.46225,9.098247 -0.2573,130.315919 -0.65416,164.397619 -1.93237,165.940629 -2.075,2.50496 -5.67829,3.15005 -8.12271,1.45424 -2.10086,-1.45747 -2.18314,-3.69265 -2.72248,-73.97929 l -0.55615,-72.47646 -5.21685,3.78035 c -2.86929,2.0792 -6.42359,3.78036 -7.89847,3.78036 -1.47689,0 -6.53037,-2.62054 -11.24886,-5.8333 -4.98398,-3.39349 -9.12421,-5.51565 -9.89886,-5.07382 -0.73234,0.41771 -4.65506,3.0427 -8.71708,5.83329 -4.06206,2.7906 -8.60416,5.07383 -10.09359,5.07383 -1.54974,0 -6.20568,-2.48318 -10.88533,-5.80549 -4.49749,-3.19306 -8.50187,-5.80552 -8.89862,-5.80552 -0.39686,0 -4.40117,2.61246 -8.89864,5.80552 -4.67966,3.32231 -9.3356,5.80549 -10.88536,5.80549 -1.48942,0 -6.03151,-2.28323 -10.09353,-5.07383 -4.06208,-2.79059 -7.98478,-5.41558 -8.71713,-5.83329 -0.77465,-0.44183 -4.91487,1.68033 -9.89884,5.07382 -4.711995,3.20834 -9.742802,5.8333 -11.179551,5.8333 -1.436791,0 -5.116202,-1.70702 -8.176518,-3.79344 l -5.564227,-3.79343 v 68.18194 68.1819 h 65.700616 c 43.16193,0 66.43868,0.37501 67.85213,1.09268 3.04137,1.54461 2.85277,6.76595 -0.32076,8.8752 -2.18982,1.45551 -12.57559,1.63364 -90.93302,1.55983 -48.653486,-0.0459 -89.211708,-0.3379 -90.129375,-0.6492 z m 35.59458,-79.02371 c 0,-54.237 -0.283768,-67.98271 -1.390411,-67.34913 -0.764726,0.43779 -3.342588,2.1283 -5.728525,3.75668 -5.482035,3.74137 -8.752817,3.73455 -13.855272,-0.0279 -2.229256,-1.64423 -4.678893,-3.33472 -5.443615,-3.75669 -1.106346,-0.61047 -1.390417,13.15637 -1.390417,67.37799 v 68.1452 H 52.5251 66.429211 Z m -6.57152,-77.78441 c 3.586623,-2.467371 6.800274,-5.436099 7.141428,-6.597199 0.34138,-1.161099 1.181723,-3.88735 1.867884,-6.058338 1.032437,-3.266544 0.914251,-4.648737 -0.685315,-8.014862 -1.73347,-3.6479 -3.042664,-4.533075 -12.687918,-8.578774 C 35.702959,64.27036 26.386543,57.576821 24.74367,50.478695 c -1.464449,-6.32718 4.245621,-12.465429 12.583158,-13.52664 2.547129,-0.324342 4.631134,-0.960775 4.631134,-1.414623 0,-0.453808 -2.910066,-4.549559 -6.466762,-9.101634 C 25.079493,13.110353 18.605541,9.0769456 13.973188,13.029518 c -2.098553,1.790556 -2.25671,2.799106 -1.716444,10.944451 0.812945,12.255958 7.773266,32.877485 20.576928,60.963791 5.0869,11.158769 5.816013,12.167345 11.997572,16.59678 3.619841,2.5938 7.014383,4.72869 7.543428,4.74413 0.529045,0.0159 3.896382,-1.99059 7.483019,-4.45792 z m 41.658389,-1.31945 c 8.33649,-5.850405 11.09768,-6.715603 15.04111,-4.712845 5.8977,2.995226 -1.20678,-9.089181 -7.32591,-12.46113 -6.39706,-3.525062 -16.388024,-2.954883 -22.222615,1.268178 -3.608409,2.611794 -9.322513,11.634469 -8.101776,12.79289 1.529748,1.4517 12.715207,8.833177 13.44319,8.871447 0.491413,0.024 4.616126,-2.56552 9.166001,-5.75854 z m 33.99762,3.81446 c 2.53851,-1.95061 2.58555,-2.32977 2.31754,-18.667669 -0.25435,-15.499833 -0.46325,-16.97937 -2.96173,-20.967131 -6.65746,-10.625933 -9.41126,-16.528013 -10.65504,-22.836848 -1.98619,-10.074178 -1.62488,-9.584592 -6.80565,-9.222987 l -4.65724,0.325146 -1.98181,8.768026 c -1.41715,6.269778 -3.36084,10.931489 -6.82171,16.361001 -7.132566,11.189846 -7.11617,10.909905 -0.68174,11.633077 3.03127,0.340704 8.05061,1.930868 11.15406,3.533792 10.78322,5.569355 16.52398,14.921767 16.52398,26.919513 0,3.37989 0.44513,6.14523 0.9891,6.14523 0.54401,0 2.15514,-0.89596 3.58024,-1.99103 z m 33.32783,-5.791641 c -5.09645,-8.761211 -5.69082,-12.663076 -2.19899,-14.436439 3.64579,-1.851547 7.01234,-0.38777 9.75399,4.241418 1.3862,2.340584 2.92747,4.255571 3.42498,4.255571 0.4975,0 1.98091,-4.072371 3.29642,-9.049722 l 2.39183,-9.049735 -5.59224,-9.195028 c -7.34225,-12.072464 -7.29996,-17.038567 0.14504,-17.038567 2.45961,0 3.64911,0.941506 6.00108,4.749991 1.61336,2.612464 3.27182,4.749951 3.68548,4.749951 0.41368,0 1.93097,-4.393741 3.37192,-9.763815 1.44091,-5.370115 3.31895,-10.832579 4.17335,-12.138811 2.81926,-4.310028 10.40087,-2.091573 10.40087,3.043403 0,1.155516 -1.29777,6.381689 -2.88397,11.613688 -1.58616,5.231998 -2.63574,9.748242 -2.33243,10.036084 0.30353,0.28764 2.58228,-0.45974 5.06429,-1.661371 7.33902,-3.552953 11.27544,-2.456566 11.27544,3.140519 0,3.43685 -1.52954,4.731754 -12.82571,10.858434 l -8.93249,4.844738 -1.91273,6.811718 c -1.05199,3.746436 -1.91269,7.453211 -1.91269,8.237306 0,1.240448 16.59272,13.533338 18.26708,13.533338 0.3443,0 3.88305,-2.22365 7.86424,-4.94148 6.99808,-4.777281 7.23859,-5.093682 7.23859,-9.522558 0,-3.993947 -0.39224,-4.739627 -3.05889,-5.818098 -7.78622,-3.148728 -8.94116,-7.083639 -3.51588,-11.978481 4.47234,-4.035041 8.44399,-10.559466 9.37696,-15.404043 0.99902,-5.187356 -2.0949,-8.279404 -8.2844,-8.279404 -6.52218,0 -8.3258,-2.236585 -7.17313,-8.894895 2.17077,-12.539408 -0.3111,-23.166171 -5.71079,-24.452265 -5.86634,-1.39719 -14.72635,7.374506 -17.56962,17.394442 -0.7651,2.696324 -2.38531,5.296631 -3.87876,6.225256 -2.34165,1.455957 -3.03073,1.387615 -7.92059,-0.785769 -6.25747,-2.781217 -8.96419,-2.040022 -11.19253,3.06504 -1.37545,3.151124 -1.0725,14.15757 0.55806,20.275359 1.15859,4.347011 -2.67877,7.441683 -8.19053,6.605327 -5.17578,-0.785407 -7.36858,0.930714 -9.13257,7.147187 -1.17643,4.145948 -0.62574,12.910708 0.96189,15.309336 1.25542,1.896724 18.44239,13.891446 20.02641,13.976336 0.91464,0.0491 -0.2388,-2.85618 -3.05889,-7.703961 z M 53.71035,54.721466 c -2.913133,-5.455288 -4.744517,-6.430483 -12.123188,-6.455455 -5.954999,-0.01995 -4.901078,1.720621 4.305108,7.110566 10.092659,5.908934 11.270558,5.810238 7.81808,-0.655111 z"
       id="path3" /></g></svg>
