<?xml version="1.0" encoding="UTF-8" standalone="no"?>
<!-- Created with Inkscape (http://www.inkscape.org/) -->

<svg
   width="241.38699mm"
   height="259.29199mm"
   viewBox="0 0 241.387 259.29199"
   version="1.1"
   id="svg1"
   xml:space="preserve"
   inkscape:version="1.4.3 (0d15f75, 2025-12-25)"
   sodipodi:docname="profile_icon.svg"
   xmlns:inkscape="http://www.inkscape.org/namespaces/inkscape"
   xmlns:sodipodi="http://sodipodi.sourceforge.net/DTD/sodipodi-0.dtd"
   xmlns="http://www.w3.org/2000/svg"
   xmlns:svg="http://www.w3.org/2000/svg"><sodipodi:namedview
     id="namedview1"
     pagecolor="#ffffff"
     bordercolor="#000000"
     borderopacity="0.25"
     inkscape:showpageshadow="2"
     inkscape:pageopacity="0.0"
     inkscape:pagecheckerboard="0"
     inkscape:deskcolor="#d1d1d1"
     inkscape:document-units="mm"
     inkscape:zoom="0.38663019"
     inkscape:cx="241.83316"
     inkscape:cy="625.92112"
     inkscape:window-width="1920"
     inkscape:window-height="1112"
     inkscape:window-x="-8"
     inkscape:window-y="-8"
     inkscape:window-maximized="1"
     inkscape:current-layer="layer1" /><defs
     id="defs1" /><g
     inkscape:label="Layer 1"
     inkscape:groupmode="layer"
     id="layer1"><path
       style="fill:#000000;stroke-width:1.67803"
       d="M 13.948266,258.54039 C 8.5787801,256.70317 3.7829855,252.33394 1.3726863,247.08331 c -1.37928064,-3.00462 -1.39611996,-3.12127 -1.36621228,-9.45902 0.02275585,-4.81362 0.27121718,-7.61936 0.99456048,-11.22957 3.9425317,-19.6773 11.1833445,-36.77209 22.2293575,-52.48103 11.459519,-16.29704 25.894316,-29.12934 42.904148,-38.14113 3.113764,-1.64968 5.743088,-3.07705 5.842921,-3.17195 0.0998,-0.095 -1.362408,-1.87304 -3.249437,-3.95141 C 60.040086,119.08019 54.654492,108.82921 51.397009,95.661276 49.672799,88.69136 49.123131,83.994506 49.075832,75.826882 49.004313,63.468941 51.252461,53.345579 56.58331,42.021685 66.056813,21.897934 83.023295,7.4930496 103.62026,2.086393 c 12.44318,-3.2663088 26.68243,-2.67731153 39.2853,1.6250122 18.12895,6.1888015 33.87599,20.9573468 42.19456,39.5726588 12.68664,28.390197 7.79057,62.629176 -12.13175,84.839156 -2.13744,2.38289 -3.81041,4.40697 -3.71772,4.49794 0.0926,0.0909 2.3941,1.34639 5.11422,2.78976 12.55046,6.65967 21.60708,13.60639 31.64818,24.27514 7.56819,8.04128 10.98173,12.40167 15.97263,20.40311 8.41421,13.48965 14.71241,29.53043 17.77162,45.2623 1.72036,8.84676 2.09256,15.56504 1.05043,18.95952 -1.9257,6.27233 -6.26202,11.04923 -12.68556,13.97443 -1.88979,0.86058 -4.4006,0.88347 -106.86952,0.9736 -99.330606,0.0873 -105.06082,0.049 -107.304384,-0.71863 z M 223.51286,243.6419 c 1.91754,-0.8708 3.30838,-2.61252 3.5963,-4.50358 0.26064,-1.71171 -0.96327,-9.27292 -2.67079,-16.49997 -4.60063,-19.47211 -15.12985,-38.54022 -29.34845,-53.14914 -11.97593,-12.30464 -26.24078,-21.47561 -41.34166,-26.57884 -3.82813,-1.29368 -5.75378,-3.03101 -6.46064,-5.82881 -1.04383,-4.13146 0.16782,-6.4236 5.51725,-10.43721 22.5042,-16.88468 30.8843,-46.329257 20.84026,-73.225041 -7.14384,-19.129695 -22.74793,-32.874773 -42.2861,-37.24831 -4.44516,-0.99503 -15.93265,-1.142407 -20.30857,-0.260545 -21.51041,4.334921 -38.088922,19.508441 -44.851764,41.050691 -2.32412,7.403228 -2.9206,12.104135 -2.655478,20.928319 0.321849,10.712317 1.83144,17.128957 6.160918,26.187626 4.262999,8.91954 10.910534,16.92863 18.864076,22.72788 5.096416,3.71599 6.396815,6.17011 5.387106,10.16657 -0.697207,2.75956 -2.819612,4.69184 -6.538047,5.95232 -16.532204,5.60414 -31.372364,15.56295 -44.220217,29.67495 -8.722982,9.58128 -15.290824,19.74757 -20.316095,31.44704 -4.458829,10.38071 -8.187764,24.10844 -8.782862,32.33335 -0.247324,3.41811 -0.210703,3.61247 0.960264,5.09564 2.3446,2.96969 -5.6946343,2.75794 105.455509,2.77757 85.1477,0.0156 101.83937,-0.0839 102.99899,-0.61051 z"
       id="path1" /></g></svg>
